# xmcd
#
# Track frame offsets:
#	182
#	10770
#	25057
#	37157
#	47432
#	63682
#	82232
#	92957
#	105657
#	117132
#	130457
#	140707
#	151082
#	162557
#	174082
#	194432
#
# Disc length: 2756 seconds
#
# Revision: 1
# Processed by: cddbd v1.5.1PL0 Copyright (c) Steve Scherf et al.
# Submitted via: audiograbber 1.83.01
#
DISCID=da0ac210
DTITLE=Various Artist - Falling in Love - Volume 3
DYEAR=1900
DGENRE=
TTITLE0=Neil Sedaka - Oh Carol
TTITLE1=Walker Brothers - The Sun Ain´t Gonna Shine Any More
TTITLE2=The Platters - Smoke Gets In Your Eyes
TTITLE3=The Byrds - Mr. Tambourine Man
TTITLE4=Barry McGuire - Eve Of Destruction
TTITLE5=Gilbert Becaud - Nathalie
TTITLE6=Paul Anka - Diana
TTITLE7=Jerry Lee Lewis - Roll Over Beethoven
TTITLE8=Buddy Holly - Peggy Sue
TTITLE9=Roy Orbison - Oh Pretty Woman
TTITLE10=Ricky Nelson - Hello Mary Lou
TTITLE11=Del Shannon - Runaway
TTITLE12=Neil Diamond - I´m A Believer
TTITLE13=The Beach Boys - California Girls
TTITLE14=The Animals - House Of The Rising Sun
TTITLE15=Elvis Presley - Love Me Tender
EXTD=
EXTT0=
EXTT1=
EXTT2=
EXTT3=
EXTT4=
EXTT5=
EXTT6=
EXTT7=
EXTT8=
EXTT9=
EXTT10=
EXTT11=
EXTT12=
EXTT13=
EXTT14=
EXTT15=
PLAYORDER=
